<svg width="32" height="32" viewBox="0 0 32 32" fill="none" xmlns="http://www.w3.org/2000/svg">
<path d="M5.33325 0H25.3333C27.5386 0 29.3333 1.79467 29.3333 4V28C29.3333 30.2053 27.5386 32 25.3333 32H2.66658V2.66667C2.66658 1.196 3.86259 0 5.33325 0ZM5.33325 24H21.3333V2.66667H15.9999V14.6667L12.6666 11.3333L9.33325 14.6667V2.66667H5.33325V24ZM25.3333 2.66667H23.9999V24H25.3333C25.8013 24 26.2493 24.0813 26.6666 24.2293V4C26.6666 3.26533 26.0679 2.66667 25.3333 2.66667ZM25.3333 29.3333C26.0679 29.3333 26.6666 28.7347 26.6666 28C26.6666 27.2653 26.0679 26.6667 25.3333 26.6667H5.33325V29.3333H25.3333Z" fill="white"/>
</svg>
