<svg width="14" height="14" viewBox="0 0 14 14" fill="none" xmlns="http://www.w3.org/2000/svg">
<path d="M0.688232 7C0.867121 6.01222 1.25795 5.11972 1.86073 4.3225C2.46351 3.52528 3.20434 2.90111 4.08323 2.45C5.00101 1.98333 5.97323 1.75 6.9999 1.75C8.02657 1.75 8.99879 1.98333 9.91657 2.45C10.7955 2.90111 11.5363 3.52528 12.1391 4.3225C12.7418 5.11972 13.1327 6.01222 13.3116 7C13.1327 7.98778 12.7418 8.88028 12.1391 9.6775C11.5363 10.4747 10.7955 11.0989 9.91657 11.55C8.99879 12.0167 8.02657 12.25 6.9999 12.25C5.97323 12.25 5.00101 12.0167 4.08323 11.55C3.20434 11.0989 2.46351 10.4747 1.86073 9.6775C1.25795 8.88028 0.867121 7.98778 0.688232 7ZM6.9999 9.91667C7.52879 9.91667 8.01684 9.78639 8.46407 9.52583C8.91129 9.26528 9.26518 8.91139 9.52573 8.46417C9.78629 8.01694 9.91657 7.52889 9.91657 7C9.91657 6.47111 9.78629 5.98306 9.52573 5.53583C9.26518 5.08861 8.91129 4.73472 8.46407 4.47417C8.01684 4.21361 7.52879 4.08333 6.9999 4.08333C6.47101 4.08333 5.98295 4.21361 5.53573 4.47417C5.08851 4.73472 4.73462 5.08861 4.47407 5.53583C4.21351 5.98306 4.08323 6.47111 4.08323 7C4.08323 7.52889 4.21351 8.01694 4.47407 8.46417C4.73462 8.91139 5.08851 9.26528 5.53573 9.52583C5.98295 9.78639 6.47101 9.91667 6.9999 9.91667ZM6.9999 8.75C6.68101 8.75 6.3874 8.67222 6.11907 8.51667C5.85073 8.36111 5.63879 8.14917 5.48323 7.88083C5.32768 7.6125 5.2499 7.31889 5.2499 7C5.2499 6.68111 5.32768 6.3875 5.48323 6.11917C5.63879 5.85083 5.85073 5.63889 6.11907 5.48333C6.3874 5.32778 6.68101 5.25 6.9999 5.25C7.31879 5.25 7.6124 5.32778 7.88073 5.48333C8.14907 5.63889 8.36101 5.85083 8.51657 6.11917C8.67212 6.3875 8.7499 6.68111 8.7499 7C8.7499 7.31889 8.67212 7.6125 8.51657 7.88083C8.36101 8.14917 8.14907 8.36111 7.88073 8.51667C7.6124 8.67222 7.31879 8.75 6.9999 8.75Z" fill="#878A99"/>
</svg>
